<svg width="2431" height="710" viewBox="0 0 2431 710" fill="none" xmlns="http://www.w3.org/2000/svg">
<path d="M585.75 0H124.25C55.6286 0 0 55.6286 0 124.25V585.75C0 654.371 55.6286 710 124.25 710H585.75C654.371 710 710 654.371 710 585.75V124.25C710 55.6286 654.371 0 585.75 0Z" fill="#2D9E6B"/>
<path d="M315.247 397.711H272.567V568.555H187.207V141.445H272.567V312.289H315.247V269.578H357.928V141.445H443.288V269.578H400.608V312.289H357.928V355H400.608V397.711H443.288V568.555H357.928V440.422H315.247V397.711Z" fill="white"/>
<path d="M485.968 483.133H571.328V568.555H485.968V483.133Z" fill="white"/>
<path d="M973.554 390.518H938.036V532.589H867V177.411H938.036V319.482H973.554V283.964H1009.07V177.411H1080.11V283.964H1044.59V319.482H1009.07V355H1044.59V390.518H1080.11V532.589H1009.07V426.036H973.554V390.518Z" fill="black"/>
<path d="M1151.14 497.071H1115.62V390.518H1151.14V355H1293.21V319.482H1115.62V283.964H1151.14V248.446H1328.73V283.964H1364.25V532.589H1293.21V497.071H1257.7V532.589H1151.14V497.071ZM1186.66 461.554H1293.21V426.036H1186.66V461.554Z" fill="black"/>
<path d="M1435.38 497.071H1399.86V461.554H1541.93V426.036H1435.38V390.518H1399.86V283.964H1435.38V248.446H1577.45V283.964H1612.97V319.482H1470.9V355H1577.45V390.518H1612.97V497.071H1577.45V532.589H1435.38V497.071Z" fill="black"/>
<path d="M1719.52 283.964H1755.04V248.446H1861.59V283.964H1897.11V532.589H1826.07V319.482H1719.52V532.589H1648.49V177.411H1719.52V283.964Z" fill="black"/>
<path d="M1932.72 177.411H2003.76V248.446H1932.72V177.411ZM1932.72 283.964H2003.76V532.589H1932.72V283.964Z" fill="black"/>
<path d="M2110.59 283.964H2146.11V248.446H2252.66V283.964H2288.18V532.589H2217.14V319.482H2110.59V532.589H2039.55V248.446H2110.59V283.964Z" fill="black"/>
<path d="M2323.79 461.554H2394.82V532.589H2323.79V461.554Z" fill="black"/>
</svg>
